<?xml version="1.0" encoding="UTF-8" standalone="yes"?>
<svg version="1.1" width="64" height="64" color-interpolation="linearRGB"
     xmlns:svg="http://www.w3.org/2000/svg" xmlns="http://www.w3.org/2000/svg">
 <g>
  <path style="fill:none; stroke:#000000; stroke-opacity:0.2313; stroke-width:8; stroke-linecap:round; stroke-linejoin:round"
        d="M32 4H24V36H32V4z
           M32 52C32 54.2 30.2 56 28 56C25.79 56 24 54.2 24 52C24 49.79 25.79 48 28 48C30.2 48 32 49.79 32 52z"
        transform="matrix(1,0,0,1,4,4)"
  />
  <path style="fill:none; stroke:#800000; stroke-width:8; stroke-linecap:round; stroke-linejoin:round"
        d="M32 4H24V36H32V4z
           M32 52C32 54.2 30.2 56 28 56C25.79 56 24 54.2 24 52C24 49.79 25.79 48 28 48C30.2 48 32 49.79 32 52z"
  />
  <linearGradient id="gradient0" gradientUnits="userSpaceOnUse" x1="100" y1="6" x2="100" y2="60">
   <stop offset="0" stop-color="#ffabab"/>
   <stop offset="1" stop-color="#ea0606"/>
  </linearGradient>
  <path style="fill:url(#gradient0)"
        d="M32 4H24V36H32V4z
           M32 52C32 54.2 30.2 56 28 56C25.79 56 24 54.2 24 52C24 49.79 25.79 48 28 48C30.2 48 32 49.79 32 52z"
  />
 </g>
</svg>
