<?xml version="1.0" encoding="UTF-8" standalone="yes"?>
<svg version="1.1" width="64" height="64" color-interpolation="linearRGB"
     xmlns:svg="http://www.w3.org/2000/svg" xmlns="http://www.w3.org/2000/svg">
 <g>
  <path style="fill:none; stroke:#000000; stroke-opacity:0.2117; stroke-width:8; stroke-linecap:round; stroke-linejoin:round"
        d="M31 56C39 56 48 50 48 42C48 36 42 30 32 26C24.94 23.17 20 22 20 16C20 12 25 12 29 12C35 12 37.13 16 37.13 16L44 14C44 7 35 4 27 4C19 4 12 10 12 18C12 28 21.13 27.42 28 32C34 36 36 38 36 44C36 48 31 48 27 48C21 48 20 44 20 44L12 46C12 52 21 56 31 56z"
        transform="matrix(1,0,0,1,4,4)"
  />
  <path style="fill:none; stroke:#545454; stroke-width:8; stroke-linecap:round; stroke-linejoin:round"
        d="M31 56C39 56 48 50 48 42C48 36 42 30 32 26C24.94 23.17 20 22 20 16C20 12 25 12 29 12C35 12 37.13 16 37.13 16L44 14C44 7 35 4 27 4C19 4 12 10 12 18C12 28 21.13 27.42 28 32C34 36 36 38 36 44C36 48 31 48 27 48C21 48 20 44 20 44L12 46C12 52 21 56 31 56z"
  />
  <linearGradient id="gradient0" gradientUnits="userSpaceOnUse" x1="128" y1="6" x2="128" y2="56">
   <stop offset="0" stop-color="#ffffff"/>
   <stop offset="1" stop-color="#e5e5e5"/>
  </linearGradient>
  <path style="fill:url(#gradient0)"
        d="M31 56C39 56 48 50 48 42C48 36 42 30 32 26C24.94 23.17 20 22 20 16C20 12 25 12 29 12C35 12 37.13 16 37.13 16L44 14C44 7 35 4 27 4C19 4 12 10 12 18C12 28 21.13 27.42 28 32C34 36 36 38 36 44C36 48 31 48 27 48C21 48 20 44 20 44L12 46C12 52 21 56 31 56z"
  />
  <path style="fill:none; stroke:#000000; stroke-opacity:0.2117; stroke-width:8; stroke-linecap:round; stroke-linejoin:round"
        d="M54 28C54 28 56 28 56 30C56 32 54 32 54 32H6C6 32 4 32 4 30C4 28 6 28 6 28H54z"
        transform="matrix(1,0,0,1,4,4)"
  />
  <path style="fill:none; stroke:#515151; stroke-width:8; stroke-linecap:round; stroke-linejoin:round"
        d="M54 28C54 28 56 28 56 30C56 32 54 32 54 32H6C6 32 4 32 4 30C4 28 6 28 6 28H54z"
  />
  <linearGradient id="gradient1" gradientUnits="userSpaceOnUse" x1="128" y1="24" x2="128" y2="38">
   <stop offset="0" stop-color="#dcdcdc"/>
   <stop offset="1" stop-color="#9d9d9d"/>
  </linearGradient>
  <path style="fill:url(#gradient1)"
        d="M54 28C54 28 56 28 56 30C56 32 54 32 54 32H6C6 32 4 32 4 30C4 28 6 28 6 28H54z"
  />
 </g>
</svg>
