<?xml version="1.0" encoding="UTF-8" standalone="yes"?>
<svg version="1.1" width="64" height="64" color-interpolation="linearRGB"
     xmlns:svg="http://www.w3.org/2000/svg" xmlns="http://www.w3.org/2000/svg">
 <g>
  <path style="fill:none; stroke:#000000; stroke-opacity:0.2117; stroke-width:8; stroke-linecap:round; stroke-linejoin:round"
        d="M54 52C54 52 56 52 56 54C56 56 54 56 54 56H6C6 56 4 56 4 54C4 52 6 52 6 52H54z
           M12 4V27C12 33 16 40 26 40C30.47 40 36 36 36 36L40 40H44V4H36V25C36 35 20 36 20 26V4H12z"
        transform="matrix(1,0,0,1,4,4)"
  />
  <path style="fill:none; stroke:#515151; stroke-width:8; stroke-linecap:round; stroke-linejoin:round"
        d="M54 52C54 52 56 52 56 54C56 56 54 56 54 56H6C6 56 4 56 4 54C4 52 6 52 6 52H54z"
  />
  <linearGradient id="gradient0" gradientUnits="userSpaceOnUse" x1="124" y1="48" x2="124" y2="64">
   <stop offset="0" stop-color="#dcdcdc"/>
   <stop offset="1" stop-color="#9d9d9d"/>
  </linearGradient>
  <path style="fill:url(#gradient0)"
        d="M54 52C54 52 56 52 56 54C56 56 54 56 54 56H6C6 56 4 56 4 54C4 52 6 52 6 52H54z"
  />
  <path style="fill:none; stroke:#545454; stroke-width:8; stroke-linecap:round; stroke-linejoin:round"
        d="M12 4V27C12 33 16 40 26 40C30.47 40 36 36 36 36L40 40H44V4H36V25C36 35 20 36 20 26V4H12z"
  />
  <linearGradient id="gradient1" gradientUnits="userSpaceOnUse" x1="128" y1="6" x2="128" y2="56">
   <stop offset="0" stop-color="#ffffff"/>
   <stop offset="1" stop-color="#e5e5e5"/>
  </linearGradient>
  <path style="fill:url(#gradient1)"
        d="M12 4V27C12 33 16 40 26 40C30.47 40 36 36 36 36L40 40H44V4H36V25C36 35 20 36 20 26V4H12z"
  />
 </g>
</svg>
