<?xml version="1.0" encoding="UTF-8" standalone="yes"?>
<svg version="1.1" width="64" height="64" color-interpolation="linearRGB"
     xmlns:svg="http://www.w3.org/2000/svg" xmlns="http://www.w3.org/2000/svg">
 <g>
  <path style="fill:none; stroke:#000000; stroke-opacity:0.2156; stroke-width:8; stroke-linecap:round; stroke-linejoin:round"
        d="M4 28L16 38L4 48V28z"
        transform="matrix(1,0,0,1,4,4)"
  />
  <path style="fill:none; stroke:#bf5000; stroke-width:8; stroke-linecap:round; stroke-linejoin:round"
        d="M4 28L16 38L4 48V28z"
  />
  <linearGradient id="gradient0" gradientUnits="userSpaceOnUse" x1="128" y1="28" x2="128" y2="48">
   <stop offset="0" stop-color="#ffe2ac"/>
   <stop offset="1" stop-color="#ffaa00"/>
  </linearGradient>
  <path style="fill:url(#gradient0)"
        d="M4 28L16 38L4 48V28z"
  />
  <path style="fill:none; stroke:#000000; stroke-opacity:0.2156; stroke-width:12; stroke-linecap:round; stroke-linejoin:round"
        d="M18 6H46
           M30 22H54
           M30 38H54
           M30 54H54"
        transform="matrix(1,0,0,1,4,4)"
  />
  <path style="fill:none; stroke:#474747; stroke-width:12; stroke-linecap:round; stroke-linejoin:round"
        d="M18 6H46"
  />
  <linearGradient id="gradient1" gradientUnits="userSpaceOnUse" x1="128" y1="-12" x2="128" y2="64">
   <stop offset="0" stop-color="#b3b3b3"/>
   <stop offset="1" stop-color="#9c9c9c"/>
  </linearGradient>
  <path style="fill:none; stroke:url(#gradient1); stroke-width:4; stroke-linecap:round; stroke-linejoin:round"
        d="M18 6H46"
  />
  <path style="fill:none; stroke:#545454; stroke-width:12; stroke-linecap:round; stroke-linejoin:round"
        d="M30 22H54
           M30 38H54
           M30 54H54"
  />
  <linearGradient id="gradient2" gradientUnits="userSpaceOnUse" x1="128" y1="-12" x2="128" y2="64">
   <stop offset="0" stop-color="#ffffff"/>
   <stop offset="1" stop-color="#e5e5e5"/>
  </linearGradient>
  <path style="fill:none; stroke:url(#gradient2); stroke-width:4; stroke-linecap:round; stroke-linejoin:round"
        d="M30 38H54
           M30 22H54
           M30 54H54"
  />
 </g>
</svg>
