<?xml version="1.0" encoding="UTF-8" standalone="yes"?>
<svg version="1.1" width="64" height="64" color-interpolation="linearRGB"
     xmlns:svg="http://www.w3.org/2000/svg" xmlns="http://www.w3.org/2000/svg">
 <g>
  <path style="fill:none; stroke:#000000; stroke-opacity:0.2274; stroke-width:8; stroke-linecap:round; stroke-linejoin:round"
        d="M33 24H42L32 56H20L33 24z
           M42 4C38.68 4 36 6.68 36 10C36 13.31 38.68 16 42 16C45.31 16 48 13.31 48 10C48 6.68 45.31 4 42 4z"
        transform="matrix(1,0,0,1,4,4)"
  />
  <path style="fill:none; stroke:#545454; stroke-width:8; stroke-linecap:round; stroke-linejoin:round"
        d="M33 24H42L32 56H20L33 24z
           M42 4C38.68 4 36 6.68 36 10C36 13.31 38.68 16 42 16C45.31 16 48 13.31 48 10C48 6.68 45.31 4 42 4z"
  />
  <linearGradient id="gradient0" gradientUnits="userSpaceOnUse" x1="128" y1="6" x2="128" y2="56">
   <stop offset="0" stop-color="#ffffff"/>
   <stop offset="1" stop-color="#e5e5e5"/>
  </linearGradient>
  <path style="fill:url(#gradient0)"
        d="M33 24H42L32 56H20L33 24z
           M42 4C38.68 4 36 6.68 36 10C36 13.31 38.68 16 42 16C45.31 16 48 13.31 48 10C48 6.68 45.31 4 42 4z"
  />
 </g>
</svg>
