<?xml version="1.0" encoding="UTF-8" standalone="yes"?>
<svg version="1.1" width="64" height="64" color-interpolation="linearRGB"
     xmlns:svg="http://www.w3.org/2000/svg" xmlns="http://www.w3.org/2000/svg">
 <g>
  <path style="fill:none; stroke:#003f80; stroke-width:4; stroke-linecap:round; stroke-linejoin:round"
        d="M18 14H10
           M10 6L14 2V14"
  />
  <path style="fill:none; stroke:#003f80; stroke-width:4; stroke-linecap:round; stroke-linejoin:round"
        d="M18 34H10C10 30.4 18 28.39 18 26C18 23.6 16.66 22 14 22C11.33 22 10 23.6 10 26"
  />
  <path style="fill:none; stroke:#003f80; stroke-width:4; stroke-linecap:round; stroke-linejoin:round"
        d="M10 42H18C18 46 13.39 46.79 13.39 46.79C13.39 46.79 18 47.6 18 50C17.99 52.39 16.39 54 14 54C11.6 54 10 52.39 10 50"
  />
  <path style="fill:none; stroke:#000000; stroke-opacity:0.2313; stroke-width:8; stroke-linecap:round; stroke-linejoin:round"
        d=""
        transform="matrix(1,0,0,1,4,-16)"
  />
  <path style="fill:none; stroke:#003f80; stroke-width:8; stroke-linecap:round; stroke-linejoin:round"
        d=""
        transform="matrix(1,0,0,1,0,-20)"
  />
  <linearGradient id="gradient0" gradientUnits="userSpaceOnUse" x1="128" y1="24" x2="128" y2="40">
   <stop offset="0" stop-color="#abd5ff"/>
   <stop offset="1" stop-color="#006cd9"/>
  </linearGradient>
  <path style="fill:url(#gradient0)"
        d=""
        transform="matrix(1,0,0,1,0,-20)"
  />
  <path style="fill:none; stroke:#000000; stroke-opacity:0.2313; stroke-width:12; stroke-linecap:round; stroke-linejoin:round"
        d="M30 30H54"
        transform="matrix(1,0,0,1,4,-16)"
  />
  <path style="fill:none; stroke:#545454; stroke-width:12; stroke-linecap:round; stroke-linejoin:round"
        d="M30 30H54"
        transform="matrix(1,0,0,1,0,-20)"
  />
  <linearGradient id="gradient1" gradientUnits="userSpaceOnUse" x1="128" y1="28" x2="128" y2="32">
   <stop offset="0" stop-color="#ffffff"/>
   <stop offset="1" stop-color="#e5e5e5"/>
  </linearGradient>
  <path style="fill:none; stroke:url(#gradient1); stroke-width:4; stroke-linecap:round; stroke-linejoin:round"
        d="M30 30H54"
        transform="matrix(1,0,0,1,0,-20)"
  />
  <path style="fill:none; stroke:#000000; stroke-opacity:0.2313; stroke-width:8; stroke-linecap:round; stroke-linejoin:round"
        d=""
        transform="matrix(1,0,0,1,4,4)"
  />
  <path style="fill:none; stroke:#003f80; stroke-width:8; stroke-linecap:round; stroke-linejoin:round"
        d=""
  />
  <linearGradient id="gradient2" gradientUnits="userSpaceOnUse" x1="128" y1="24" x2="128" y2="40">
   <stop offset="0" stop-color="#abd5ff"/>
   <stop offset="1" stop-color="#006cd9"/>
  </linearGradient>
  <path style="fill:url(#gradient2)"
        d=""
  />
  <path style="fill:none; stroke:#000000; stroke-opacity:0.2313; stroke-width:12; stroke-linecap:round; stroke-linejoin:round"
        d="M30 30H54"
        transform="matrix(1,0,0,1,4,4)"
  />
  <path style="fill:none; stroke:#545454; stroke-width:12; stroke-linecap:round; stroke-linejoin:round"
        d="M30 30H54"
  />
  <linearGradient id="gradient3" gradientUnits="userSpaceOnUse" x1="128" y1="28" x2="128" y2="32">
   <stop offset="0" stop-color="#ffffff"/>
   <stop offset="1" stop-color="#e5e5e5"/>
  </linearGradient>
  <path style="fill:none; stroke:url(#gradient3); stroke-width:4; stroke-linecap:round; stroke-linejoin:round"
        d="M30 30H54"
  />
  <path style="fill:none; stroke:#000000; stroke-opacity:0.2313; stroke-width:8; stroke-linecap:round; stroke-linejoin:round"
        d=""
        transform="matrix(1,0,0,1,4,24)"
  />
  <path style="fill:none; stroke:#003f80; stroke-width:8; stroke-linecap:round; stroke-linejoin:round"
        d=""
        transform="matrix(1,0,0,1,0,20)"
  />
  <linearGradient id="gradient4" gradientUnits="userSpaceOnUse" x1="128" y1="24" x2="128" y2="40">
   <stop offset="0" stop-color="#abd5ff"/>
   <stop offset="1" stop-color="#006cd9"/>
  </linearGradient>
  <path style="fill:url(#gradient4)"
        d=""
        transform="matrix(1,0,0,1,0,20)"
  />
  <path style="fill:none; stroke:#000000; stroke-opacity:0.2313; stroke-width:12; stroke-linecap:round; stroke-linejoin:round"
        d="M30 30H54"
        transform="matrix(1,0,0,1,4,24)"
  />
  <path style="fill:none; stroke:#545454; stroke-width:12; stroke-linecap:round; stroke-linejoin:round"
        d="M30 30H54"
        transform="matrix(1,0,0,1,0,20)"
  />
  <linearGradient id="gradient5" gradientUnits="userSpaceOnUse" x1="128" y1="28" x2="128" y2="32">
   <stop offset="0" stop-color="#ffffff"/>
   <stop offset="1" stop-color="#e5e5e5"/>
  </linearGradient>
  <path style="fill:none; stroke:url(#gradient5); stroke-width:4; stroke-linecap:round; stroke-linejoin:round"
        d="M30 30H54"
        transform="matrix(1,0,0,1,0,20)"
  />
 </g>
</svg>
