<?xml version="1.0" encoding="UTF-8" standalone="yes"?>
<svg version="1.1" width="64" height="64" color-interpolation="linearRGB"
     xmlns:svg="http://www.w3.org/2000/svg" xmlns="http://www.w3.org/2000/svg">
 <g>
  <path style="fill:none; stroke:#000000; stroke-opacity:0.2156; stroke-width:8; stroke-linecap:round; stroke-linejoin:round"
        d="M12 24C9.79 24 8 25.79 8 28C8 30.2 9.79 32 12 32C14.2 32 16 30.2 16 28C16 25.79 14.2 24 12 24z"
        transform="matrix(1,0,0,1,4,-16)"
  />
  <path style="fill:none; stroke:#003f80; stroke-width:8; stroke-linecap:round; stroke-linejoin:round"
        d="M12 24C9.79 24 8 25.79 8 28C8 30.2 9.79 32 12 32C14.2 32 16 30.2 16 28C16 25.79 14.2 24 12 24z"
        transform="matrix(1,0,0,1,0,-20)"
  />
  <linearGradient id="gradient0" gradientUnits="userSpaceOnUse" x1="128" y1="24" x2="128" y2="40">
   <stop offset="0" stop-color="#abd5ff"/>
   <stop offset="1" stop-color="#006cd9"/>
  </linearGradient>
  <path style="fill:url(#gradient0)"
        d="M12 24C9.79 24 8 25.79 8 28C8 30.2 9.79 32 12 32C14.2 32 16 30.2 16 28C16 25.79 14.2 24 12 24z"
        transform="matrix(1,0,0,1,0,-20)"
  />
  <path style="fill:none; stroke:#000000; stroke-opacity:0.2156; stroke-width:12; stroke-linecap:round; stroke-linejoin:round"
        d="M30 30H54"
        transform="matrix(1,0,0,1,4,-16)"
  />
  <path style="fill:none; stroke:#545454; stroke-width:12; stroke-linecap:round; stroke-linejoin:round"
        d="M30 30H54"
        transform="matrix(1,0,0,1,0,-20)"
  />
  <linearGradient id="gradient1" gradientUnits="userSpaceOnUse" x1="128" y1="28" x2="128" y2="32">
   <stop offset="0" stop-color="#ffffff"/>
   <stop offset="1" stop-color="#e5e5e5"/>
  </linearGradient>
  <path style="fill:none; stroke:url(#gradient1); stroke-width:4; stroke-linecap:round; stroke-linejoin:round"
        d="M30 30H54"
        transform="matrix(1,0,0,1,0,-20)"
  />
  <path style="fill:none; stroke:#000000; stroke-opacity:0.2156; stroke-width:8; stroke-linecap:round; stroke-linejoin:round"
        d="M12 24C9.79 24 8 25.79 8 28C8 30.2 9.79 32 12 32C14.2 32 16 30.2 16 28C16 25.79 14.2 24 12 24z"
        transform="matrix(1,0,0,1,4,4)"
  />
  <path style="fill:none; stroke:#003f80; stroke-width:8; stroke-linecap:round; stroke-linejoin:round"
        d="M12 24C9.79 24 8 25.79 8 28C8 30.2 9.79 32 12 32C14.2 32 16 30.2 16 28C16 25.79 14.2 24 12 24z"
  />
  <linearGradient id="gradient2" gradientUnits="userSpaceOnUse" x1="128" y1="24" x2="128" y2="40">
   <stop offset="0" stop-color="#abd5ff"/>
   <stop offset="1" stop-color="#006cd9"/>
  </linearGradient>
  <path style="fill:url(#gradient2)"
        d="M12 24C9.79 24 8 25.79 8 28C8 30.2 9.79 32 12 32C14.2 32 16 30.2 16 28C16 25.79 14.2 24 12 24z"
  />
  <path style="fill:none; stroke:#000000; stroke-opacity:0.2156; stroke-width:12; stroke-linecap:round; stroke-linejoin:round"
        d="M30 30H54"
        transform="matrix(1,0,0,1,4,4)"
  />
  <path style="fill:none; stroke:#545454; stroke-width:12; stroke-linecap:round; stroke-linejoin:round"
        d="M30 30H54"
  />
  <linearGradient id="gradient3" gradientUnits="userSpaceOnUse" x1="128" y1="28" x2="128" y2="32">
   <stop offset="0" stop-color="#ffffff"/>
   <stop offset="1" stop-color="#e5e5e5"/>
  </linearGradient>
  <path style="fill:none; stroke:url(#gradient3); stroke-width:4; stroke-linecap:round; stroke-linejoin:round"
        d="M30 30H54"
  />
  <path style="fill:none; stroke:#000000; stroke-opacity:0.2156; stroke-width:8; stroke-linecap:round; stroke-linejoin:round"
        d="M12 24C9.79 24 8 25.79 8 28C8 30.2 9.79 32 12 32C14.2 32 16 30.2 16 28C16 25.79 14.2 24 12 24z"
        transform="matrix(1,0,0,1,4,24)"
  />
  <path style="fill:none; stroke:#003f80; stroke-width:8; stroke-linecap:round; stroke-linejoin:round"
        d="M12 24C9.79 24 8 25.79 8 28C8 30.2 9.79 32 12 32C14.2 32 16 30.2 16 28C16 25.79 14.2 24 12 24z"
        transform="matrix(1,0,0,1,0,20)"
  />
  <linearGradient id="gradient4" gradientUnits="userSpaceOnUse" x1="128" y1="24" x2="128" y2="40">
   <stop offset="0" stop-color="#abd5ff"/>
   <stop offset="1" stop-color="#006cd9"/>
  </linearGradient>
  <path style="fill:url(#gradient4)"
        d="M12 24C9.79 24 8 25.79 8 28C8 30.2 9.79 32 12 32C14.2 32 16 30.2 16 28C16 25.79 14.2 24 12 24z"
        transform="matrix(1,0,0,1,0,20)"
  />
  <path style="fill:none; stroke:#000000; stroke-opacity:0.2156; stroke-width:12; stroke-linecap:round; stroke-linejoin:round"
        d="M30 30H54"
        transform="matrix(1,0,0,1,4,24)"
  />
  <path style="fill:none; stroke:#545454; stroke-width:12; stroke-linecap:round; stroke-linejoin:round"
        d="M30 30H54"
        transform="matrix(1,0,0,1,0,20)"
  />
  <linearGradient id="gradient5" gradientUnits="userSpaceOnUse" x1="128" y1="28" x2="128" y2="32">
   <stop offset="0" stop-color="#ffffff"/>
   <stop offset="1" stop-color="#e5e5e5"/>
  </linearGradient>
  <path style="fill:none; stroke:url(#gradient5); stroke-width:4; stroke-linecap:round; stroke-linejoin:round"
        d="M30 30H54"
        transform="matrix(1,0,0,1,0,20)"
  />
 </g>
</svg>
