<?xml version="1.0" encoding="UTF-8" standalone="yes"?>
<svg version="1.1" width="64" height="64" color-interpolation="linearRGB"
     xmlns:svg="http://www.w3.org/2000/svg" xmlns="http://www.w3.org/2000/svg">
 <g>
  <path style="fill:none; stroke:#000000; stroke-opacity:0.2156; stroke-width:8; stroke-linecap:round; stroke-linejoin:round"
        d="M28 4H34L52 56H44L29.98 14.87L16 56H8L28 4z
           M20 36H42V40H18L20 36z"
        transform="matrix(1,0,0,1,4,4)"
  />
  <path style="fill:none; stroke:#545454; stroke-width:8; stroke-linecap:round; stroke-linejoin:round"
        d="M28 4H34L52 56H44L29.98 14.87L16 56H8L28 4z
           M20 36H42V40H18L20 36z"
  />
  <linearGradient id="gradient0" gradientUnits="userSpaceOnUse" x1="123.5" y1="5.49" x2="123.5" y2="55.5">
   <stop offset="0" stop-color="#ffffff"/>
   <stop offset="1" stop-color="#e5e5e5"/>
  </linearGradient>
  <path style="fill:url(#gradient0)"
        d="M28 4H34L52 56H44L29.98 14.87L16 56H8L28 4z
           M20 36H42V40H18L20 36z"
  />
 </g>
</svg>
