<?xml version="1.0" encoding="UTF-8" standalone="yes"?>
<svg version="1.1" width="64" height="64" color-interpolation="linearRGB"
     xmlns:svg="http://www.w3.org/2000/svg" xmlns="http://www.w3.org/2000/svg">
 <g>
  <path style="fill:none; stroke:#000000; stroke-opacity:0.2196; stroke-width:8; stroke-linecap:round; stroke-linejoin:round"
        d="M4 56L25 20H33L40 56H32L28 28L12 56H4z
           M16 40H32V44H16V40z
           M32 12V20H56V12H32z"
        transform="matrix(1,0,0,1,4,4)"
  />
  <path style="fill:none; stroke:#545454; stroke-width:8; stroke-linecap:round; stroke-linejoin:round"
        d="M4 56L25 20H33L40 56H32L28 28L12 56H4z
           M16 40H32V44H16V40z"
  />
  <linearGradient id="gradient0" gradientUnits="userSpaceOnUse" x1="0" y1="2" x2="0" y2="55.99">
   <stop offset="0" stop-color="#ffffff"/>
   <stop offset="1" stop-color="#e5e5e5"/>
  </linearGradient>
  <path style="fill:url(#gradient0)"
        d="M4 56L25 20H33L40 56H32L28 28L12 56H4z
           M16 40H32V44H16V40z"
  />
  <path style="fill:none; stroke:#003f80; stroke-width:8; stroke-linecap:round; stroke-linejoin:round"
        d="M32 12V20H56V12H32z"
  />
  <linearGradient id="gradient1" gradientUnits="userSpaceOnUse" x1="64" y1="8" x2="64" y2="25.99">
   <stop offset="0" stop-color="#abd5ff"/>
   <stop offset="1" stop-color="#006cd9"/>
  </linearGradient>
  <path style="fill:url(#gradient1)"
        d="M32 12V20H56V12H32z"
  />
 </g>
</svg>
