<?xml version="1.0" encoding="UTF-8" standalone="yes"?>
<svg version="1.1" width="64" height="64" color-interpolation="linearRGB"
     xmlns:svg="http://www.w3.org/2000/svg" xmlns="http://www.w3.org/2000/svg">
 <g>
  <path style="fill:#fbff00"
        d="M0 52V60H16V52H0z"
  />
  <path style="fill:none; stroke:#000000; stroke-opacity:0.2196; stroke-width:8; stroke-linejoin:round"
        d="M18 32L38 46L56 10L45 4L18 32z
           M16 48L24 52L34 50L38 46L18 32L16 37V48z
           M12 56H20L24 52L16 48L12 56z"
        transform="matrix(1,0,0,1,4,4)"
  />
  <path style="fill:none; stroke:#bf5000; stroke-width:8; stroke-linejoin:round"
        d="M18 32L38 46L56 10L45 4L18 32z
           M16 48L24 52L34 50L38 46L18 32L16 37V48z
           M12 56H20L24 52L16 48L12 56z"
  />
  <linearGradient id="gradient0" gradientUnits="userSpaceOnUse" x1="186.22" y1="5.8" x2="186.22" y2="46.54">
   <stop offset="0" stop-color="#ffff80"/>
   <stop offset="1" stop-color="#ffd400"/>
  </linearGradient>
  <path style="fill:url(#gradient0)"
        d="M18 32L38 46L56 10L45 4L18 32z"
  />
  <linearGradient id="gradient1" gradientUnits="userSpaceOnUse" x1="8.72" y1="-93.12" x2="20.36" y2="-93.12">
   <stop offset="0" stop-color="#ffff80"/>
   <stop offset="1" stop-color="#ffd400"/>
  </linearGradient>
  <path style="fill:url(#gradient1)"
        d="M12 56H20L24 52L16 48L12 56z"
  />
  <path style="fill:#010101"
        d="M16 48L24 52L34 50L38 46L18 32L16 37V48z"
  />
  <path style="fill:#ffffff; fill-opacity:0.5411"
        d="M22 32L46 6L53 11L46 8L24 34L22 32z
           M18 46L20 48L23 43L35 47L19 37C17 39 20 44 18 46z"
  />
 </g>
</svg>
