<?xml version="1.0" encoding="UTF-8" standalone="yes"?>
<svg version="1.1" width="64" height="64" color-interpolation="linearRGB"
     xmlns:svg="http://www.w3.org/2000/svg" xmlns="http://www.w3.org/2000/svg">
 <g>
  <path style="fill:none; stroke:#000000; stroke-opacity:0.2274; stroke-width:12; stroke-linecap:round; stroke-linejoin:round"
        d="M6 30H54"
        transform="matrix(1,0,0,1,4,-20)"
  />
  <path style="fill:none; stroke:#000000; stroke-opacity:0.2274; stroke-width:12; stroke-linecap:round; stroke-linejoin:round"
        d="M6 30H54"
        transform="matrix(1,0,0,1,4,4)"
  />
  <path style="fill:none; stroke:#000000; stroke-opacity:0.2274; stroke-width:12; stroke-linecap:round; stroke-linejoin:round"
        d="M6 30H54"
        transform="matrix(1,0,0,1,4,28)"
  />
  <path style="fill:none; stroke:#000000; stroke-opacity:0.2274; stroke-width:8; stroke-linecap:round; stroke-linejoin:round"
        d="M10 20C6.68 20 4 22.68 4 26C4 29.31 6.68 32 10 32C13.31 32 16 29.31 16 26C16 22.68 13.31 20 10 20z"
        transform="matrix(1,0,0,1,24,-4)"
  />
  <path style="fill:none; stroke:#000000; stroke-opacity:0.2274; stroke-width:8; stroke-linecap:round; stroke-linejoin:round"
        d="M10 20C6.68 20 4 22.68 4 26C4 29.31 6.68 32 10 32C13.31 32 16 29.31 16 26C16 22.68 13.31 20 10 20z"
        transform="matrix(1,0,0,1,24,20)"
  />
  <path style="fill:none; stroke:#545454; stroke-width:12; stroke-linecap:round; stroke-linejoin:round"
        d="M6 30H54"
        transform="matrix(1,0,0,1,0,-24)"
  />
  <path style="fill:none; stroke:#545454; stroke-width:12; stroke-linecap:round; stroke-linejoin:round"
        d="M6 30H54"
  />
  <path style="fill:none; stroke:#545454; stroke-width:12; stroke-linecap:round; stroke-linejoin:round"
        d="M6 30H54"
        transform="matrix(1,0,0,1,0,24)"
  />
  <linearGradient id="gradient0" gradientUnits="userSpaceOnUse" x1="128" y1="28" x2="128" y2="32">
   <stop offset="0" stop-color="#ffffff"/>
   <stop offset="1" stop-color="#e5e5e5"/>
  </linearGradient>
  <path style="fill:none; stroke:url(#gradient0); stroke-width:4; stroke-linecap:round; stroke-linejoin:round"
        d="M6 30H54"
  />
  <linearGradient id="gradient1" gradientUnits="userSpaceOnUse" x1="128" y1="28" x2="128" y2="32">
   <stop offset="0" stop-color="#ffffff"/>
   <stop offset="1" stop-color="#e5e5e5"/>
  </linearGradient>
  <path style="fill:none; stroke:url(#gradient1); stroke-width:4; stroke-linecap:round; stroke-linejoin:round"
        d="M6 30H54"
        transform="matrix(1,0,0,1,0,-24)"
  />
  <linearGradient id="gradient2" gradientUnits="userSpaceOnUse" x1="128" y1="28" x2="128" y2="32">
   <stop offset="0" stop-color="#ffffff"/>
   <stop offset="1" stop-color="#e5e5e5"/>
  </linearGradient>
  <path style="fill:none; stroke:url(#gradient2); stroke-width:4; stroke-linecap:round; stroke-linejoin:round"
        d="M6 30H54"
        transform="matrix(1,0,0,1,0,24)"
  />
  <path style="fill:none; stroke:#003f80; stroke-width:8; stroke-linecap:round; stroke-linejoin:round"
        d="M10 20C6.68 20 4 22.68 4 26C4 29.31 6.68 32 10 32C13.31 32 16 29.31 16 26C16 22.68 13.31 20 10 20z"
        transform="matrix(1,0,0,1,20,-8)"
  />
  <path style="fill:none; stroke:#003f80; stroke-width:8; stroke-linecap:round; stroke-linejoin:round"
        d="M10 20C6.68 20 4 22.68 4 26C4 29.31 6.68 32 10 32C13.31 32 16 29.31 16 26C16 22.68 13.31 20 10 20z"
        transform="matrix(1,0,0,1,20,16)"
  />
  <linearGradient id="gradient3" gradientUnits="userSpaceOnUse" x1="128" y1="24" x2="128" y2="40">
   <stop offset="0" stop-color="#abd5ff"/>
   <stop offset="1" stop-color="#006cd9"/>
  </linearGradient>
  <path style="fill:url(#gradient3)"
        d="M10 20C6.68 20 4 22.68 4 26C4 29.31 6.68 32 10 32C13.31 32 16 29.31 16 26C16 22.68 13.31 20 10 20z"
        transform="matrix(1,0,0,1,20,-8)"
  />
  <linearGradient id="gradient4" gradientUnits="userSpaceOnUse" x1="128" y1="24" x2="128" y2="40">
   <stop offset="0" stop-color="#abd5ff"/>
   <stop offset="1" stop-color="#006cd9"/>
  </linearGradient>
  <path style="fill:url(#gradient4)"
        d="M10 20C6.68 20 4 22.68 4 26C4 29.31 6.68 32 10 32C13.31 32 16 29.31 16 26C16 22.68 13.31 20 10 20z"
        transform="matrix(1,0,0,1,20,16)"
  />
 </g>
</svg>
