<?xml version="1.0" encoding="UTF-8" standalone="yes"?>
<svg version="1.1" width="64" height="64" color-interpolation="linearRGB"
     xmlns:svg="http://www.w3.org/2000/svg" xmlns="http://www.w3.org/2000/svg">
 <g>
  <path style="fill:none; stroke:#000000; stroke-opacity:0.2235; stroke-width:8; stroke-linecap:round; stroke-linejoin:round"
        d="M48 56H44V16H32V56H28V32C20 32 12 30 12 20C12 10 20 8 28 8H48V56z"
        transform="matrix(1,0,0,1,4,4)"
  />
  <path style="fill:none; stroke:#545454; stroke-width:8; stroke-linecap:round; stroke-linejoin:round"
        d="M48 56H44V16H32V56H28V32C20 32 12 30 12 20C12 10 20 8 28 8H48V56z"
  />
  <linearGradient id="gradient0" gradientUnits="userSpaceOnUse" x1="-64" y1="54" x2="-64" y2="4">
   <stop offset="0" stop-color="#ffffff"/>
   <stop offset="1" stop-color="#e5e5e5"/>
  </linearGradient>
  <path style="fill:url(#gradient0)"
        d="M48 56H44V16H32V56H28V32C20 32 12 30 12 20C12 10 20 8 28 8H48V56z"
  />
 </g>
</svg>
