<?xml version="1.0" encoding="UTF-8" standalone="yes"?>
<svg version="1.1" width="64" height="64" color-interpolation="linearRGB"
     xmlns:svg="http://www.w3.org/2000/svg" xmlns="http://www.w3.org/2000/svg">
 <g>
  <path style="fill:none; stroke:#000000; stroke-opacity:0.2156; stroke-width:8; stroke-linecap:round; stroke-linejoin:round"
        d="M56 24L30 8L4 24H56z
           M12 28V56H48V28H12z"
        transform="matrix(1,0,0,1,4,4)"
  />
  <path style="fill:none; stroke:#545454; stroke-width:8; stroke-linecap:round; stroke-linejoin:round"
        d="M12 28V56H48V28H12z"
  />
  <linearGradient id="gradient0" gradientUnits="userSpaceOnUse" x1="129" y1="18" x2="129" y2="56">
   <stop offset="0" stop-color="#ffffff"/>
   <stop offset="1" stop-color="#e5e5e5"/>
  </linearGradient>
  <path style="fill:url(#gradient0)"
        d="M12 28V56H48V28H12z"
  />
  <path style="fill:none; stroke:#7e7e7e; stroke-width:4; stroke-linejoin:round"
        d="M26 34V42H18V34H26z
           M42 38V54H34V38H42z"
  />
  <path style="fill:none; stroke:#800000; stroke-width:8; stroke-linecap:round; stroke-linejoin:round"
        d="M56 24L30 8L4 24H56z"
  />
  <linearGradient id="gradient1" gradientUnits="userSpaceOnUse" x1="128" y1="2" x2="128" y2="28">
   <stop offset="0" stop-color="#ffabab"/>
   <stop offset="1" stop-color="#fc0606"/>
  </linearGradient>
  <path style="fill:url(#gradient1)"
        d="M56 24L30 8L4 24H56z"
  />
 </g>
</svg>
