<?xml version="1.0" encoding="UTF-8" standalone="yes"?>
<svg version="1.1" width="64" height="64" color-interpolation="linearRGB"
     xmlns:svg="http://www.w3.org/2000/svg" xmlns="http://www.w3.org/2000/svg">
 <g>
  <path style="fill:none; stroke:#000000; stroke-opacity:0.2235; stroke-width:8; stroke-linejoin:round"
        d="M4 4V52H32C42.76 52 48 48 48 48C48 48 52 42 52 34C52 26 52 4 52 4H4z"
        transform="matrix(1,0,0,1,4,4)"
  />
  <linearGradient id="gradient0" gradientUnits="userSpaceOnUse" x1="128" y1="3.99" x2="128" y2="20">
   <stop offset="0" stop-color="#727403"/>
   <stop offset="1" stop-color="#808203"/>
  </linearGradient>
  <path style="fill:none; stroke:url(#gradient0); stroke-width:8; stroke-linejoin:round"
        d="M4 4V52H32C42.76 52 48 48 48 48C48 48 52 42 52 34C52 26 52 4 52 4H4z"
  />
  <linearGradient id="gradient1" gradientUnits="userSpaceOnUse" x1="-27.17" y1="116.68" x2="-44.19" y2="96.07">
   <stop offset="0" stop-color="#feffc0"/>
   <stop offset="1" stop-color="#fdff97"/>
  </linearGradient>
  <path style="fill:url(#gradient1)"
        d="M4 4V52H32C42.76 52 48 48 48 48C48 48 52 42 52 34C52 26 52 4 52 4H4z"
  />
  <path style="fill:#eaeb59"
        d="M4 4V12H48V4H4z"
  />
  <path style="fill:none; stroke:#3473a3; stroke-width:4; stroke-linecap:round; stroke-linejoin:round"
        d="M10 30C12 30 12 18 14 18C16 18 18 26 20 26C22 26 22 22 24 22C26 22 28 26 30 26C32 26 32 22 34 22C36 22 40 27 42 27C44 27 48 26 50 26
           M10 42C12 42 12 34 14 34C16 34 20 42 22 42C24 42 24 38 26 38C28 38 32 42 34 42C36 42 40 38 42 38"
  />
  <path style="fill:none; stroke:#000000; stroke-opacity:0.2235; stroke-width:8; stroke-linecap:round; stroke-linejoin:round"
        d="M38 42L28 52L32 56L42 46L52 56L56 52L46 42L56 32L52 28L42 38L32 28L28 32L38 42z"
        transform="matrix(1,0,0,1,4,4)"
  />
  <path style="fill:none; stroke:#800000; stroke-width:8; stroke-linecap:round; stroke-linejoin:round"
        d="M38 42L28 52L32 56L42 46L52 56L56 52L46 42L56 32L52 28L42 38L32 28L28 32L38 42z"
  />
  <linearGradient id="gradient2" gradientUnits="userSpaceOnUse" x1="128" y1="30" x2="128" y2="56">
   <stop offset="0" stop-color="#ffabab"/>
   <stop offset="1" stop-color="#ea0606"/>
  </linearGradient>
  <path style="fill:url(#gradient2)"
        d="M38 42L28 52L32 56L42 46L52 56L56 52L46 42L56 32L52 28L42 38L32 28L28 32L38 42z"
  />
 </g>
</svg>
