<?xml version="1.0" encoding="UTF-8" standalone="yes"?>
<svg version="1.1" width="64" height="64" color-interpolation="linearRGB"
     xmlns:svg="http://www.w3.org/2000/svg" xmlns="http://www.w3.org/2000/svg">
 <g>
  <path style="fill:none; stroke:#010101; stroke-opacity:0.2156; stroke-width:8; stroke-linejoin:round"
        d="M4 4V56H36C46.76 56 52 52 52 52C52 52 56 46 56 38C56 30 56 4 56 4H4z"
        transform="matrix(1,0,0,1,4,4)"
  />
  <linearGradient id="gradient0" gradientUnits="userSpaceOnUse" x1="128" y1="3.99" x2="128" y2="20">
   <stop offset="0" stop-color="#727403"/>
   <stop offset="1" stop-color="#808203"/>
  </linearGradient>
  <path style="fill:none; stroke:url(#gradient0); stroke-width:8; stroke-linejoin:round"
        d="M4 4V56H36C46.76 56 52 52 52 52C52 52 56 46 56 38C56 30 56 4 56 4H4z"
  />
  <linearGradient id="gradient1" gradientUnits="userSpaceOnUse" x1="-27.17" y1="116.68" x2="-44.19" y2="96.07">
   <stop offset="0" stop-color="#feffc0"/>
   <stop offset="1" stop-color="#fdff97"/>
  </linearGradient>
  <path style="fill:url(#gradient1)"
        d="M4 4V56H36C46.76 56 52 52 52 52C52 52 56 46 56 38C56 30 56 4 56 4H4z"
  />
  <path style="fill:#eaeb59"
        d="M4 4V12H56V4H4z"
  />
  <path style="fill:none; stroke:#3473a3; stroke-width:4; stroke-linecap:round; stroke-linejoin:round"
        d="M10 30C12 30 12 18 14 18C16 18 18 26 20 26C22 26 22 22 24 22C26 22 28 26 30 26C32 26 32 22 34 22C36 22 40 27 42 27C44 27 48 26 50 26
           M10 42C12 42 12 34 14 34C16 34 20 42 22 42C24 42 24 38 26 38C28 38 32 42 34 42C36 42 40 38 42 38"
  />
 </g>
</svg>
