<?xml version="1.0" encoding="UTF-8" standalone="yes"?>
<svg version="1.1" width="64" height="64" color-interpolation="linearRGB"
     xmlns:svg="http://www.w3.org/2000/svg" xmlns="http://www.w3.org/2000/svg">
 <g>
  <path style="fill:none; stroke:#000000; stroke-opacity:0.2235; stroke-width:8; stroke-linejoin:round"
        d="M22 36C12 36 4 40.95 4 47.07V56H40V47.07C40 40.95 32 36 22 36z
           M22 4C14.26 4 8 10.26 8 18C8 25.73 14.26 32 22 32C29.73 32 36 25.73 36 18C36 10.26 29.73 4 22 4z"
        transform="matrix(1,0,0,1,4,4)"
  />
  <path style="fill:none; stroke:#005900; stroke-width:8; stroke-linejoin:round"
        d="M22 36C12 36 4 40.95 4 47.07V56H40V47.07C40 40.95 32 36 22 36z"
  />
  <linearGradient id="gradient0" gradientUnits="userSpaceOnUse" x1="52" y1="36" x2="52" y2="56">
   <stop offset="0" stop-color="#80ff80"/>
   <stop offset="1" stop-color="#00b200"/>
  </linearGradient>
  <path style="fill:url(#gradient0)"
        d="M22 36C12 36 4 40.95 4 47.07V56H40V47.07C40 40.95 32 36 22 36z"
  />
  <path style="fill:none; stroke:#8a652b; stroke-width:8; stroke-linejoin:round"
        d="M22 4C14.26 4 8 10.26 8 18C8 25.73 14.26 32 22 32C29.73 32 36 25.73 36 18C36 10.26 29.73 4 22 4z
           M28 20C28 24 26 28 22 28C16 28 16 24 16 20H28z
           M16 12V16H12V12H16z
           M32 12V16H28V12H32z"
  />
  <linearGradient id="gradient1" gradientUnits="userSpaceOnUse" x1="57.99" y1="3.99" x2="57.99" y2="31.99">
   <stop offset="0" stop-color="#fff3e3"/>
   <stop offset="1" stop-color="#f7debb"/>
  </linearGradient>
  <path style="fill:url(#gradient1)"
        d="M22 4C14.26 4 8 10.26 8 18C8 25.73 14.26 32 22 32C29.73 32 36 25.73 36 18C36 10.26 29.73 4 22 4z
           M28 20C28 24 26 28 22 28C16 28 16 24 16 20H28z
           M16 12V16H12V12H16z
           M32 12V16H28V12H32z"
  />
  <path style="fill:none; stroke:#000000; stroke-opacity:0.2235; stroke-width:8; stroke-linejoin:round"
        d="M36 36H24V44H36V56H44V44H56V36H44V24H36V36z"
        transform="matrix(1,0,0,1,4,4)"
  />
  <path style="fill:none; stroke:#003f80; stroke-width:8; stroke-linejoin:round"
        d="M36 36H24V44H36V56H44V44H56V36H44V24H36V36z"
  />
  <linearGradient id="gradient2" gradientUnits="userSpaceOnUse" x1="132" y1="28" x2="132" y2="52">
   <stop offset="0" stop-color="#abd5ff"/>
   <stop offset="1" stop-color="#3699ff"/>
  </linearGradient>
  <path style="fill:url(#gradient2)"
        d="M36 36H24V44H36V56H44V44H56V36H44V24H36V36z"
  />
 </g>
</svg>
