<?xml version="1.0" encoding="UTF-8" standalone="yes"?>
<svg version="1.1" width="64" height="64" color-interpolation="linearRGB"
     xmlns:svg="http://www.w3.org/2000/svg" xmlns="http://www.w3.org/2000/svg">
 <g>
  <path style="fill:none; stroke:#000000; stroke-opacity:0.2078; stroke-width:12; stroke-linecap:round; stroke-linejoin:round"
        d="M6 10V42C5.99 44 15.99 54 15.99 54H19.99C19.99 54 29.99 44 29.99 42V8L27.99 6H15.99L14 8V38C14 38 14.91 42 17.99 42C20.91 42 21.99 38 21.99 38V14"
        transform="matrix(1,0,0,1,4,4)"
  />
  <path style="fill:none; stroke:#525252; stroke-width:12; stroke-linecap:round; stroke-linejoin:round"
        d="M6 10V42C5.99 44 15.99 54 15.99 54H19.99C19.99 54 29.99 44 29.99 42V8L27.99 6H15.99L14 8V38C14 38 14.91 42 17.99 42C20.91 42 21.99 38 21.99 38V14"
  />
  <radialGradient id="gradient0" gradientUnits="userSpaceOnUse" cx="0" cy="0" r="64" gradientTransform="matrix(0.3359,0.0294,-0.0614,0.7008,12.973,18.9924)">
   <stop offset="0" stop-color="#e5e5e5"/>
   <stop offset="0.3522" stop-color="#d0d0d0"/>
   <stop offset="1" stop-color="#f1f1f1"/>
  </radialGradient>
  <path style="fill:none; stroke:url(#gradient0); stroke-width:4; stroke-linecap:round"
        d="M6 10V42C5.99 44 15.99 54 15.99 54H19.99C19.99 54 29.99 44 29.99 42V8L27.99 6H15.99L14 8V38C14 38 14.91 42 17.99 42C20.91 42 21.99 38 21.99 38V14"
  />
  <path style="fill:none; stroke:#000000; stroke-opacity:0.2078; stroke-width:8; stroke-linecap:round; stroke-linejoin:round"
        d="M40 44L32 52L36 56L44 48L52 56L56 52L48 44L56 36L52 32L44 40L36 32L32 36L40 44z"
        transform="matrix(1,0,0,1,4,4)"
  />
  <path style="fill:none; stroke:#800000; stroke-width:8; stroke-linecap:round; stroke-linejoin:round"
        d="M40 44L32 52L36 56L44 48L52 56L56 52L48 44L56 36L52 32L44 40L36 32L32 36L40 44z"
  />
  <linearGradient id="gradient1" gradientUnits="userSpaceOnUse" x1="128" y1="38" x2="128" y2="56">
   <stop offset="0" stop-color="#ffabab"/>
   <stop offset="1" stop-color="#ea0606"/>
  </linearGradient>
  <path style="fill:url(#gradient1)"
        d="M40 44L32 52L36 56L44 48L52 56L56 52L48 44L56 36L52 32L44 40L36 32L32 36L40 44z"
  />
 </g>
</svg>
