<?xml version="1.0" encoding="UTF-8" standalone="yes"?>
<svg version="1.1" width="64" height="64" color-interpolation="linearRGB"
     xmlns:svg="http://www.w3.org/2000/svg" xmlns="http://www.w3.org/2000/svg">
 <g>
  <path style="fill:none; stroke:#000000; stroke-opacity:0.2078; stroke-width:12; stroke-linecap:round; stroke-linejoin:round"
        d="M18 10V42C18 44 28 54 28 54H32C32 54 41.99 44 42 42V8L40 6H28L26 8V38C26 38 26.91 42 29.99 42C32.91 42 34 38 34 38V14"
        transform="matrix(1,0,0,1,4,4)"
  />
  <path style="fill:none; stroke:#525252; stroke-width:12; stroke-linecap:round; stroke-linejoin:round"
        d="M18 10V42C18 44 28 54 28 54H32C32 54 41.99 44 42 42V8L40 6H28L26 8V38C26 38 26.91 42 29.99 42C32.91 42 34 38 34 38V14"
  />
  <radialGradient id="gradient0" gradientUnits="userSpaceOnUse" cx="0" cy="0" r="64" gradientTransform="matrix(0.3359,0.0294,-0.0614,0.7008,24.973,12.9924)">
   <stop offset="0" stop-color="#e5e5e5"/>
   <stop offset="0.3522" stop-color="#d0d0d0"/>
   <stop offset="1" stop-color="#f1f1f1"/>
  </radialGradient>
  <path style="fill:none; stroke:url(#gradient0); stroke-width:4; stroke-linecap:round"
        d="M18 10V42C18 44 28 54 28 54H32C32 54 41.99 44 42 42V8L40 6H28L26 8V38C26 38 26.91 42 29.99 42C32.91 42 34 38 34 38V14"
  />
 </g>
</svg>
