<?xml version="1.0" encoding="UTF-8" standalone="yes"?>
<svg version="1.1" width="64" height="64" color-interpolation="linearRGB"
     xmlns:svg="http://www.w3.org/2000/svg" xmlns="http://www.w3.org/2000/svg">
 <g>
  <path style="fill:none; stroke:#000000; stroke-opacity:0.2196; stroke-width:8; stroke-linecap:round; stroke-linejoin:round"
        d="M8 28H56V56H8V28z"
        transform="matrix(1,0,0,1,4,4)"
  />
  <path style="fill:none; stroke:#000000; stroke-width:8; stroke-linecap:round; stroke-linejoin:round"
        d="M8 28H56V56H8V28z"
  />
  <linearGradient id="gradient0" gradientUnits="userSpaceOnUse" x1="127.99" y1="24.62" x2="127.99" y2="56.12">
   <stop offset="0" stop-color="#808080"/>
   <stop offset="1" stop-color="#262626"/>
  </linearGradient>
  <path style="fill:url(#gradient0)"
        d="M8 28H56V56H8V28z"
  />
  <linearGradient id="gradient1" gradientUnits="userSpaceOnUse" x1="127.87" y1="31.75" x2="127.87" y2="55.75">
   <stop offset="0" stop-color="#ffffff"/>
   <stop offset="1" stop-color="#e5e5e5"/>
  </linearGradient>
  <path style="fill:url(#gradient1)"
        d="M40 36L48 28H56L48 36H40z
           M24 36L32 28H40L32 36H24z
           M8 36L16 28H24L16 36H8z"
  />
  <linearGradient id="gradient2" gradientUnits="userSpaceOnUse" x1="127.87" y1="31.75" x2="127.87" y2="55.75">
   <stop offset="0" stop-color="#ffffff"/>
   <stop offset="1" stop-color="#e5e5e5"/>
  </linearGradient>
  <path style="fill:none; stroke:url(#gradient2); stroke-width:4; stroke-linecap:round"
        d="M14 42H50
           M34 50V54
           M14 50H50"
  />
  <path style="fill:none; stroke:#000000; stroke-opacity:0.2196; stroke-width:8; stroke-linecap:round; stroke-linejoin:round"
        d="M8 12H56V24H10V22H8V12z"
        transform="matrix(0.9869,-0.1611,0.1611,0.9869,-3.7639,1.6033)"
  />
  <path style="fill:none; stroke:#000000; stroke-width:8; stroke-linecap:round; stroke-linejoin:round"
        d="M8 12H56V24H10V22H8V12z"
        transform="matrix(0.9869,-0.1611,0.1611,0.9869,-3.7639,1.6033)"
  />
  <linearGradient id="gradient3" gradientUnits="userSpaceOnUse" x1="128.37" y1="13.75" x2="128.37" y2="21.75">
   <stop offset="0" stop-color="#808080"/>
   <stop offset="1" stop-color="#262626"/>
  </linearGradient>
  <path style="fill:url(#gradient3)"
        d="M8 12H56V24H10V22H8V12z"
        transform="matrix(0.9869,-0.1611,0.1611,0.9869,-3.7639,1.6033)"
  />
  <linearGradient id="gradient4" gradientUnits="userSpaceOnUse" x1="127.99" y1="30" x2="127.99" y2="18">
   <stop offset="0" stop-color="#ffffff"/>
   <stop offset="1" stop-color="#e5e5e5"/>
  </linearGradient>
  <path style="fill:url(#gradient4)"
        d="M40 36L48 28H56L48 36H40z
           M24 36L32 28H40L32 36H24z
           M8 36L16 28H24L16 36H8z"
        transform="matrix(0.9869,-0.1611,-0.1611,-0.9869,4.6178,52.9233)"
  />
  <path style="fill:#000000"
        d="M4 20H12V28H4V20z"
  />
  <linearGradient id="gradient5" gradientUnits="userSpaceOnUse" x1="127.87" y1="31.75" x2="127.87" y2="55.75">
   <stop offset="0" stop-color="#ffffff"/>
   <stop offset="1" stop-color="#e5e5e5"/>
  </linearGradient>
  <path style="fill:url(#gradient5)"
        d="M8 23C8.55 23 9 23.43 9 24C9 24.55 8.55 25 8 25C7.44 25 7 24.55 7 24C7 23.43 7.44 23 8 23z"
  />
 </g>
</svg>
