<?xml version="1.0" encoding="UTF-8" standalone="yes"?>
<svg version="1.1" width="64" height="64" color-interpolation="linearRGB"
     xmlns:svg="http://www.w3.org/2000/svg" xmlns="http://www.w3.org/2000/svg">
 <g>
  <path style="fill:none; stroke:#000000; stroke-opacity:0.2313; stroke-width:8; stroke-linecap:round; stroke-linejoin:round"
        d="M44 24H16C15 24 12 29 12 30C12 31 13 32 14 32H46C47 32 48 31 48 30C48 29 45 24 44 24z
           M42 4H18C17 4 16 6 16 7C16 8 16 9.39 16 10C16 11 17 12 18 12H42C43 12 44 11 44 10C44 9.44 44 7 44 6C44 5 43 4 42 4z
           M10 20H6C5 20 4 21 4 22C4 23 5 24 6 24H10C11 24 12 23 12 22C12 21 11 20 10 20z
           M54 20H50C49 20 48 21 48 22C48 23 49 24 50 24H54C55 24 56 23 56 22C56 21 55 20 54 20z"
        transform="matrix(1,0,0,1,4,4)"
  />
  <path style="fill:none; stroke:#000000; stroke-opacity:0.2313; stroke-width:12; stroke-linecap:round; stroke-linejoin:round"
        d="M18 54L42 34
           M42 54L17.99 34"
        transform="matrix(1,0,0,1,4,4)"
  />
  <path style="fill:none; stroke:#9a5708; stroke-width:12; stroke-linecap:round; stroke-linejoin:round"
        d="M18 54L42 34"
  />
  <linearGradient id="gradient0" gradientUnits="userSpaceOnUse" x1="128" y1="34" x2="128" y2="56">
   <stop offset="0" stop-color="#ffbf75"/>
   <stop offset="1" stop-color="#ffd29e"/>
  </linearGradient>
  <path style="fill:none; stroke:url(#gradient0); stroke-width:4; stroke-linecap:round; stroke-linejoin:round"
        d="M18 54L42 34"
  />
  <path style="fill:none; stroke:#9a5708; stroke-width:12; stroke-linecap:round; stroke-linejoin:round"
        d="M42 54L17.99 34"
  />
  <linearGradient id="gradient1" gradientUnits="userSpaceOnUse" x1="128" y1="34" x2="128" y2="56">
   <stop offset="0" stop-color="#ffbf75"/>
   <stop offset="1" stop-color="#ffd29e"/>
  </linearGradient>
  <path style="fill:none; stroke:url(#gradient1); stroke-width:4; stroke-linecap:round; stroke-linejoin:round"
        d="M42 54L17.99 34"
  />
  <path style="fill:none; stroke:#7f0000; stroke-width:8; stroke-linecap:round; stroke-linejoin:round"
        d="M44 24H16C15 24 12 29 12 30C12 31 13 32 14 32H46C47 32 48 31 48 30C48 29 45 24 44 24z
           M42 4H18C17 4 16 6 16 7C16 8 16 9.39 16 10C16 11 17 12 18 12H42C43 12 44 11 44 10C44 9.44 44 7 44 6C44 5 43 4 42 4z
           M10 20H6C5 20 4 21 4 22C4 23 5 24 6 24H10C11 24 12 23 12 22C12 21 11 20 10 20z
           M54 20H50C49 20 48 21 48 22C48 23 49 24 50 24H54C55 24 56 23 56 22C56 21 55 20 54 20z"
  />
  <linearGradient id="gradient2" gradientUnits="userSpaceOnUse" x1="101" y1="47" x2="101" y2="17">
   <stop offset="0" stop-color="#ff8989"/>
   <stop offset="1" stop-color="#ff5252"/>
  </linearGradient>
  <path style="fill:url(#gradient2)"
        d="M44 24H16C15 24 12 29 12 30C12 31 13 32 14 32H46C47 32 48 31 48 30C48 29 45 24 44 24z
           M42 4H18C17 4 16 6 16 7C16 8 16 9.39 16 10C16 11 17 12 18 12H42C43 12 44 11 44 10C44 9.44 44 7 44 6C44 5 43 4 42 4z
           M10 20H6C5 20 4 21 4 22C4 23 5 24 6 24H10C11 24 12 23 12 22C12 21 11 20 10 20z
           M54 20H50C49 20 48 21 48 22C48 23 49 24 50 24H54C55 24 56 23 56 22C56 21 55 20 54 20z"
  />
 </g>
</svg>
