<?xml version="1.0" encoding="UTF-8" standalone="yes"?>
<svg version="1.1" width="64" height="64" color-interpolation="linearRGB"
     xmlns:svg="http://www.w3.org/2000/svg" xmlns="http://www.w3.org/2000/svg">
 <g>
  <path style="fill:#000000; fill-opacity:0.2274"
        d="M22 50L10 44C10 44 8.35 51.64 4 56C9.8 56 22 50 22 50z
           M30 8C15.64 8 4 17.84 4 30C4 42.15 15.64 52 30 52C44.35 52 56 42.15 56 30C56 17.84 44.35 8 30 8z"
        transform="matrix(1,0,0,1,4,4)"
  />
  <path style="fill:none; stroke:#5b5c66; stroke-width:8; stroke-linecap:round; stroke-linejoin:round"
        d="M22 50L10 44C10 44 8.35 51.64 4 56C9.8 56 22 50 22 50z
           M30 8C15.64 8 4 17.84 4 30C4 42.15 15.64 52 30 52C44.35 52 56 42.15 56 30C56 17.84 44.35 8 30 8z"
  />
  <linearGradient id="gradient0" gradientUnits="userSpaceOnUse" x1="128" y1="3.99" x2="128" y2="56">
   <stop offset="0" stop-color="#ffffff"/>
   <stop offset="1" stop-color="#dbe2e7"/>
  </linearGradient>
  <path style="fill:url(#gradient0)"
        d="M22 50L10 44C10 44 8.35 51.64 4 56C9.8 56 22 50 22 50z
           M30 8C15.64 8 4 17.84 4 30C4 42.15 15.64 52 30 52C44.35 52 56 42.15 56 30C56 17.84 44.35 8 30 8z"
  />
  <linearGradient id="gradient1" gradientUnits="userSpaceOnUse" x1="130" y1="12" x2="130" y2="50">
   <stop offset="0" stop-color="#808080"/>
   <stop offset="1" stop-color="#282828"/>
  </linearGradient>
  <path style="fill:url(#gradient1)"
        d="M44 20H16V24H44V20z
           M44 28H16V32H44V28z
           M40 36H16V40H40V36z"
  />
 </g>
</svg>
