<?xml version="1.0" encoding="UTF-8" standalone="yes"?>
<svg version="1.1" width="64" height="64" color-interpolation="linearRGB"
     xmlns:svg="http://www.w3.org/2000/svg" xmlns="http://www.w3.org/2000/svg">
 <g>
  <path style="fill:none; stroke:#000000; stroke-opacity:0.2196; stroke-width:8; stroke-linejoin:round"
        d="M8 48C8 48 4 48 4 52C4 56 8 56 8 56H52C52 56 56 56 56 52C56 48 52 48 52 48H48L44 40L41 32L38 24L35 16L32 8L31 4H29L28 8L25 16L22 24L19 32L16 40L12 48H8z"
        transform="matrix(1,0,0,1,4,4)"
  />
  <path style="fill:none; stroke:#993104; stroke-width:8; stroke-linejoin:round"
        d="M8 48C8 48 4 48 4 52C4 56 8 56 8 56H52C52 56 56 56 56 52C56 48 52 48 52 48H48L44 40L41 32L38 24L35 16L32 8L31 4H29L28 8L25 16L22 24L19 32L16 40L12 48H8z"
  />
  <linearGradient id="gradient0" gradientUnits="userSpaceOnUse" x1="128" y1="48" x2="128" y2="56">
   <stop offset="0" stop-color="#f5a03b"/>
   <stop offset="1" stop-color="#e47e06"/>
  </linearGradient>
  <path style="fill:url(#gradient0)"
        d="M8 48C8 48 4 48 4 52C4 56 8 56 8 56H52C52 56 56 56 56 52C56 48 52 48 52 48H8z"
  />
  <linearGradient id="gradient1" gradientUnits="userSpaceOnUse" x1="24.99" y1="4.99" x2="40.99" y2="4.99">
   <stop offset="0" stop-color="#ffb567"/>
   <stop offset="0.5222" stop-color="#f49118"/>
   <stop offset="1" stop-color="#f9a23c"/>
  </linearGradient>
  <path style="fill:url(#gradient1)"
        d="M44 40L41 32H19L16 40H44z
           M38 24L35 16H25L22 24H38z
           M32 8L31 4H29L28 8H32z"
  />
  <linearGradient id="gradient2" gradientUnits="userSpaceOnUse" x1="24.99" y1="11" x2="37" y2="11">
   <stop offset="0" stop-color="#ffffff"/>
   <stop offset="0.5182" stop-color="#e6e6e6"/>
   <stop offset="1" stop-color="#f0f0f0"/>
  </linearGradient>
  <path style="fill:url(#gradient2)"
        d="M41 32L38 24H22L19 32H41z
           M35 16L32 8H28L25 16H35z
           M48 48L44 40H16L12 48H48z"
  />
 </g>
</svg>
