<?xml version="1.0" encoding="UTF-8" standalone="yes"?>
<svg version="1.1" width="64" height="64" color-interpolation="linearRGB"
     xmlns:svg="http://www.w3.org/2000/svg" xmlns="http://www.w3.org/2000/svg">
 <g>
  <path style="fill:none; stroke:#000000; stroke-opacity:0.2235; stroke-width:12; stroke-linecap:round; stroke-linejoin:round"
        d="M54 54L43 43
           M24 6C14.05 6 6 14.05 6 24C6 33.94 14.05 42 24 42C33.94 42 42 33.94 42 24C42 14.05 33.94 6 24 6z"
        transform="matrix(1,0,0,1,4,4)"
  />
  <path style="fill:none; stroke:#545454; stroke-width:12; stroke-linecap:round; stroke-linejoin:round"
        d="M54 54L43 43
           M24 6C14.05 6 6 14.05 6 24C6 33.94 14.05 42 24 42C33.94 42 42 33.94 42 24C42 14.05 33.94 6 24 6z"
  />
  <linearGradient id="gradient0" gradientUnits="userSpaceOnUse" x1="128" y1="6" x2="128" y2="48">
   <stop offset="0" stop-color="#ffffff"/>
   <stop offset="1" stop-color="#e5e5e5"/>
  </linearGradient>
  <path style="fill:none; stroke:url(#gradient0); stroke-width:4; stroke-linecap:round"
        d="M54 54L43 43
           M24 6C14.05 6 6 14.05 6 24C6 33.94 14.05 42 24 42C33.94 42 42 33.94 42 24C42 14.05 33.94 6 24 6z"
  />
  <radialGradient id="gradient1" gradientUnits="userSpaceOnUse" cx="0" cy="0" r="64" gradientTransform="matrix(0.2343,0,0,0.25,22.9999,23)">
   <stop offset="0" stop-color="#ffffff"/>
   <stop offset="0.7165" stop-color="#bdeafa"/>
   <stop offset="1" stop-color="#68cdf2"/>
  </radialGradient>
  <path style="fill:url(#gradient1)"
        d="M24 8C15.16 8 8 15.16 8 24C8 32.83 15.16 40 24 40C32.83 40 40 32.83 40 24C40 15.16 32.83 8 24 8z"
  />
  <path style="fill:#2058ce"
        d="M20 12V20H12V28H20V36H28V28H36V20H28V12H20z"
  />
 </g>
</svg>
